<svg version="1.1" xmlns="http://www.w3.org/2000/svg" xmlns:xlink="http://www.w3.org/1999/xlink" width="103.97873" height="113.27651" viewBox="0,0,103.97873,113.27651"><g transform="translate(-188.00325,-122.65824)"><g data-paper-data="{&quot;isPaintingLayer&quot;:true}" fill-rule="nonzero" stroke="none" stroke-width="0" stroke-linecap="butt" stroke-linejoin="miter" stroke-miterlimit="10" stroke-dasharray="" stroke-dashoffset="0" style="mix-blend-mode: normal"><path d="M189.25635,235.2896c0,0 -1.2531,-0.43799 -1.2531,-2.11969c0,-6.62073 0,-23.37821 0,-27.47018c0,-1.75674 1.76908,-2.87384 1.76908,-2.87384c0,0 1.47131,-0.66341 3.7421,-0.66341c1.59406,0 4.52086,0 7.32407,0c3.65851,0 4.82145,0.51599 4.82145,0.51599c0,0 2.28507,1.74897 2.28507,3.84914c0,3.9123 0,17.35133 0,24.61027c0,2.84556 -1.10567,3.3409 -1.10567,3.3409c0,0 -1.49168,1.40052 -3.46281,1.40052c-2.11748,0 -7.02698,0 -10.73229,0c-2.62199,0 -3.3879,-0.5897 -3.3879,-0.5897z" fill="#dd1000"/><path d="M217.29384,206.06589c0,0 -1.2531,-0.39843 -1.2531,-1.92821c0,-6.02265 0,-21.26637 0,-24.98869c0,-1.59805 1.76908,-2.61424 1.76908,-2.61424c0,0 1.47131,-0.60348 3.7421,-0.60348c1.59406,0 4.52086,0 7.32407,0c3.65851,0 4.82146,0.46938 4.82146,0.46938c0,0 2.28507,1.59097 2.28507,3.50143c0,3.55889 0,15.78391 0,22.38712c0,2.58851 -1.10568,3.03911 -1.10568,3.03911c0,0 -1.49168,1.27401 -3.46281,1.27401c-2.11748,0 -7.02698,0 -10.73229,0c-2.62199,0 -3.38789,-0.53642 -3.38789,-0.53642z" fill="#f9b800"/><path d="M217.28919,235.56039c0,0 -1.2531,-0.27806 -1.2531,-1.34567c0,-4.2031 0,-14.84141 0,-17.43915c0,-1.11524 1.76908,-1.82442 1.76908,-1.82442c0,0 1.47131,-0.42116 3.7421,-0.42116c1.59406,0 4.52086,0 7.32407,0c3.65851,0 4.82145,0.32756 4.82145,0.32756c0,0 2.28507,1.11032 2.28507,2.44359c0,2.48368 0,11.0153 0,15.62356c0,1.80648 -1.10567,2.12094 -1.10567,2.12094c0,0 -1.49168,0.88911 -3.46281,0.88911c-2.11748,0 -7.02698,0 -10.73229,0c-2.62199,0 -3.3879,-0.37436 -3.3879,-0.37436z" fill="#f9b800"/><path d="M245.27481,235.34446c0,0 -1.2531,-0.39843 -1.2531,-1.92822c0,-6.02266 0,-21.26636 0,-24.98868c0,-1.59805 1.76908,-2.61424 1.76908,-2.61424c0,0 1.47131,-0.60349 3.7421,-0.60349c1.59406,0 4.52086,0 7.32407,0c3.65852,0 4.82146,0.46938 4.82146,0.46938c0,0 2.28507,1.59097 2.28507,3.50143c0,3.55889 0,15.78391 0,22.38712c0,2.58851 -1.10568,3.0391 -1.10568,3.0391c0,0 -1.49168,1.27401 -3.46281,1.27401c-2.11748,0 -7.02698,0 -10.7323,0c-2.62199,0 -3.3879,-0.53642 -3.3879,-0.53642z" fill="#008e25"/><path d="M245.31741,196.98589c0,0 -1.2531,-0.28504 -1.2531,-1.37944c0,-4.30858 0,-15.21387 0,-17.8768c0,-1.14324 1.76908,-1.87021 1.76908,-1.87021c0,0 1.47131,-0.43174 3.7421,-0.43174c1.59406,0 4.52086,0 7.32407,0c3.65852,0 4.82146,0.33579 4.82146,0.33579c0,0 2.28506,1.13818 2.28506,2.50492c0,2.54601 0,11.29174 0,16.01565c0,1.85181 -1.10567,2.17417 -1.10567,2.17417c0,0 -1.49168,0.91142 -3.46281,0.91142c-2.11748,0 -7.02698,0 -10.7323,0c-2.62199,0 -3.38789,-0.38376 -3.38789,-0.38376z" fill="#008e25"/><path d="M245.46035,166.2637c0,0 -1.2531,-0.28504 -1.2531,-1.37944c0,-4.30858 0,-15.21387 0,-17.8768c0,-1.14324 1.76908,-1.87022 1.76908,-1.87022c0,0 1.47131,-0.43173 3.7421,-0.43173c1.59406,0 4.52086,0 7.32407,0c3.65852,0 4.82146,0.33579 4.82146,0.33579c0,0 2.28506,1.13817 2.28506,2.50491c0,2.54601 0,11.29175 0,16.01566c0,1.85181 -1.10567,2.17416 -1.10567,2.17416c0,0 -1.49168,0.91142 -3.46281,0.91142c-2.11748,0 -7.02698,0 -10.7323,0c-2.62199,0 -3.38789,-0.38375 -3.38789,-0.38375z" fill="#008e25"/><path d="M273.26965,235.49374c0,0 -1.2531,-0.28504 -1.2531,-1.37944c0,-4.30858 0,-15.21387 0,-17.8768c0,-1.14324 1.76908,-1.87022 1.76908,-1.87022c0,0 1.4713,-0.43173 3.7421,-0.43173c1.59406,0 4.52086,0 7.32407,0c3.65852,0 4.82146,0.33579 4.82146,0.33579c0,0 2.28507,1.13817 2.28507,2.50491c0,2.54601 0,11.29175 0,16.01566c0,1.85181 -1.10568,2.17416 -1.10568,2.17416c0,0 -1.49168,0.91142 -3.46281,0.91142c-2.11748,0 -7.02698,0 -10.7323,0c-2.622,0 -3.38789,-0.38376 -3.38789,-0.38376z" fill="#0056e9"/><path d="M273.2933,204.47626c0,0 -1.2531,-0.438 -1.2531,-2.1197c0,-6.62073 0,-23.37821 0,-27.47017c0,-1.75674 1.76908,-2.87385 1.76908,-2.87385c0,0 1.4713,-0.66341 3.7421,-0.66341c1.59406,0 4.52086,0 7.32407,0c3.65852,0 4.82146,0.51599 4.82146,0.51599c0,0 2.28506,1.74897 2.28506,3.84915c0,3.9123 0,17.35133 0,24.61027c0,2.84556 -1.10567,3.3409 -1.10567,3.3409c0,0 -1.49168,1.40053 -3.46281,1.40053c-2.11748,0 -7.02698,0 -10.7323,0c-2.622,0 -3.3879,-0.5897 -3.3879,-0.5897z" fill="#0056e9"/><path d="M273.26472,161.39783c0,0 -1.2531,-0.51221 -1.2531,-2.47882c0,-7.74243 0,-27.33899 0,-32.12422c0,-2.05437 1.76908,-3.36074 1.76908,-3.36074c0,0 1.4713,-0.7758 3.7421,-0.7758c1.59406,0 4.52086,0 7.32407,0c3.65852,0 4.82145,0.6034 4.82145,0.6034c0,0 2.28507,2.04528 2.28507,4.50127c0,4.57513 0,20.29102 0,28.77978c0,3.32766 -1.10568,3.90693 -1.10568,3.90693c0,0 -1.49168,1.6378 -3.46281,1.6378c-2.11748,0 -7.02698,0 -10.73229,0c-2.622,0 -3.3879,-0.6896 -3.3879,-0.6896z" fill="#0056e9"/></g></g></svg>